<?xml version="1.0" encoding="UTF-8" standalone="no"?>
<!DOCTYPE svg PUBLIC "-//W3C//DTD SVG 1.1//EN"
 "http://www.w3.org/Graphics/SVG/1.1/DTD/svg11.dtd">
<!-- Generated by graphviz version 2.40.1 (20161225.0304)
 -->
<!-- Title: mhcquant_dag Pages: 1 -->
<svg width="1254pt" height="2529pt"
 viewBox="0.00 0.00 1253.94 2529.00" xmlns="http://www.w3.org/2000/svg" xmlns:xlink="http://www.w3.org/1999/xlink">
<g id="graph0" class="graph" transform="scale(1 1) rotate(0) translate(4 2525)">
<title>mhcquant_dag</title>
<polygon fill="#ffffff" stroke="transparent" points="-4,4 -4,-2525 1249.9397,-2525 1249.9397,4 -4,4"/>
<!-- p0 -->
<g id="node1" class="node">
<title>p0</title>
<ellipse fill="#000000" stroke="#000000" cx="133.6" cy="-2429.8" rx="3.6" ry="3.6"/>
<text text-anchor="middle" x="65" y="-2437.2" font-family="Times,serif" font-size="14.00" fill="#000000">Channel.fromPath</text>
</g>
<!-- p1 -->
<g id="node2" class="node">
<title>p1</title>
<ellipse fill="none" stroke="#000000" cx="133.6" cy="-2357.2" rx="3.5" ry="3.5"/>
<text text-anchor="middle" x="101.1" y="-2364.5" font-family="Times,serif" font-size="14.00" fill="#000000">ifEmpty</text>
</g>
<!-- p0&#45;&gt;p1 -->
<g id="edge1" class="edge">
<title>p0&#45;&gt;p1</title>
<path fill="none" stroke="#000000" d="M133.6,-2425.8967C133.6,-2415.7576 133.6,-2388.197 133.6,-2371.2256"/>
<polygon fill="#000000" stroke="#000000" points="137.1001,-2370.7754 133.6,-2360.7755 130.1001,-2370.7755 137.1001,-2370.7754"/>
</g>
<!-- p2 -->
<g id="node3" class="node">
<title>p2</title>
<ellipse fill="none" stroke="#000000" cx="133.6" cy="-2284.6" rx="3.5" ry="3.5"/>
<text text-anchor="middle" x="116.1" y="-2291.9" font-family="Times,serif" font-size="14.00" fill="#000000">into</text>
</g>
<!-- p1&#45;&gt;p2 -->
<g id="edge2" class="edge">
<title>p1&#45;&gt;p2</title>
<path fill="none" stroke="#000000" d="M133.6,-2353.6984C133.6,-2343.8521 133.6,-2315.5232 133.6,-2298.3484"/>
<polygon fill="#000000" stroke="#000000" points="137.1001,-2298.2375 133.6,-2288.2375 130.1001,-2298.2376 137.1001,-2298.2375"/>
</g>
<!-- p18 -->
<g id="node4" class="node">
<title>p18</title>
<ellipse fill="none" stroke="#000000" cx="540.6" cy="-2212.1" rx="3.5" ry="3.5"/>
<text text-anchor="middle" x="523.6" y="-2219.4" font-family="Times,serif" font-size="14.00" fill="#000000">mix</text>
</g>
<!-- p2&#45;&gt;p18 -->
<g id="edge3" class="edge">
<title>p2&#45;&gt;p18</title>
<path fill="none" stroke="#000000" d="M136.8601,-2282.5437C151.4354,-2273.3675 210.3165,-2236.4827 219.6,-2233.6 278.2414,-2215.3909 472.9409,-2212.6007 526.7282,-2212.1758"/>
<polygon fill="#000000" stroke="#000000" points="527.0258,-2215.6741 537.0037,-2212.1116 526.982,-2208.6742 527.0258,-2215.6741"/>
<text text-anchor="middle" x="265.6" y="-2237.4" font-family="Times,serif" font-size="14.00" fill="#000000">input_mzmls</text>
</g>
<!-- p27 -->
<g id="node5" class="node">
<title>p27</title>
<ellipse fill="none" stroke="#000000" cx="310.6" cy="-2212.1" rx="3.5" ry="3.5"/>
<text text-anchor="middle" x="293.6" y="-2219.4" font-family="Times,serif" font-size="14.00" fill="#000000">mix</text>
</g>
<!-- p2&#45;&gt;p27 -->
<g id="edge4" class="edge">
<title>p2&#45;&gt;p27</title>
<path fill="none" stroke="#000000" d="M130.1089,-2283.8778C112.0096,-2279.9947 30.6353,-2260.7581 55.6,-2233.6 72.0227,-2215.7343 246.1515,-2212.7035 296.8343,-2212.1988"/>
<polygon fill="#000000" stroke="#000000" points="296.9176,-2215.6984 306.8889,-2212.1175 296.8609,-2208.6986 296.9176,-2215.6984"/>
<text text-anchor="middle" x="123.1" y="-2237.4" font-family="Times,serif" font-size="14.00" fill="#000000">input_mzmls_align</text>
</g>
<!-- p20 -->
<g id="node25" class="node">
<title>p20</title>
<ellipse fill="none" stroke="#000000" cx="831.6" cy="-2147.6" rx="92.0841" ry="18"/>
<text text-anchor="middle" x="831.6" y="-2143.9" font-family="Times,serif" font-size="14.00" fill="#000000">db_search_comet</text>
</g>
<!-- p18&#45;&gt;p20 -->
<g id="edge20" class="edge">
<title>p18&#45;&gt;p20</title>
<path fill="none" stroke="#000000" d="M544.1512,-2212.027C562.9752,-2211.5693 652.8945,-2208.4982 723.6,-2190.6 745.023,-2185.177 767.8786,-2176.5261 787.0218,-2168.4008"/>
<polygon fill="#000000" stroke="#000000" points="788.5974,-2171.5326 796.3818,-2164.3456 785.8146,-2165.1095 788.5974,-2171.5326"/>
</g>
<!-- p28 -->
<g id="node33" class="node">
<title>p28</title>
<ellipse fill="none" stroke="#000000" cx="310.6" cy="-2104.1" rx="3.5" ry="3.5"/>
<text text-anchor="middle" x="269.1" y="-2111.4" font-family="Times,serif" font-size="14.00" fill="#000000">collectFile</text>
</g>
<!-- p27&#45;&gt;p28 -->
<g id="edge30" class="edge">
<title>p27&#45;&gt;p28</title>
<path fill="none" stroke="#000000" d="M310.6,-2208.5066C310.6,-2194.4794 310.6,-2142.9524 310.6,-2117.9249"/>
<polygon fill="#000000" stroke="#000000" points="314.1001,-2117.8176 310.6,-2107.8176 307.1001,-2117.8176 314.1001,-2117.8176"/>
</g>
<!-- p3 -->
<g id="node6" class="node">
<title>p3</title>
<ellipse fill="#000000" stroke="#000000" cx="474.6" cy="-2357.2" rx="3.6" ry="3.6"/>
<text text-anchor="middle" x="416.5" y="-2364.6" font-family="Times,serif" font-size="14.00" fill="#000000">Channel.empty</text>
</g>
<!-- p17 -->
<g id="node7" class="node">
<title>p17</title>
<ellipse fill="none" stroke="#000000" cx="474.6" cy="-2284.6" rx="72.5877" ry="18"/>
<text text-anchor="middle" x="474.6" y="-2280.9" font-family="Times,serif" font-size="14.00" fill="#000000">peak_picking</text>
</g>
<!-- p3&#45;&gt;p17 -->
<g id="edge5" class="edge">
<title>p3&#45;&gt;p17</title>
<path fill="none" stroke="#000000" d="M474.6,-2353.2967C474.6,-2345.6869 474.6,-2328.2632 474.6,-2312.8684"/>
<polygon fill="#000000" stroke="#000000" points="478.1001,-2312.6802 474.6,-2302.6802 471.1001,-2312.6802 478.1001,-2312.6802"/>
<text text-anchor="middle" x="557.6" y="-2324.4" font-family="Times,serif" font-size="14.00" fill="#000000">input_mzmls_unpicked</text>
</g>
<!-- p17&#45;&gt;p18 -->
<g id="edge18" class="edge">
<title>p17&#45;&gt;p18</title>
<path fill="none" stroke="#000000" d="M498.7734,-2267.2899C505.6199,-2261.7576 512.7846,-2255.3147 518.6,-2248.6 524.9787,-2241.2349 530.6164,-2231.7887 534.5876,-2224.3514"/>
<polygon fill="#000000" stroke="#000000" points="537.739,-2225.875 539.1055,-2215.3687 531.4854,-2222.7297 537.739,-2225.875"/>
<text text-anchor="middle" x="603.6" y="-2237.4" font-family="Times,serif" font-size="14.00" fill="#000000">input_mzmls_picked</text>
</g>
<!-- p17&#45;&gt;p27 -->
<g id="edge19" class="edge">
<title>p17&#45;&gt;p27</title>
<path fill="none" stroke="#000000" d="M411.6686,-2275.5063C376.7568,-2269.323 337.7874,-2260.1673 324.6,-2248.6 317.9591,-2242.7749 314.452,-2233.4381 312.6088,-2225.6661"/>
<polygon fill="#000000" stroke="#000000" points="316.0442,-2224.991 310.8986,-2215.7296 309.1456,-2226.1784 316.0442,-2224.991"/>
<text text-anchor="middle" x="419.6" y="-2237.4" font-family="Times,serif" font-size="14.00" fill="#000000">input_mzmls_align_picked</text>
</g>
<!-- p4 -->
<g id="node8" class="node">
<title>p4</title>
<ellipse fill="#000000" stroke="#000000" cx="898.6" cy="-2502.4" rx="3.6" ry="3.6"/>
<text text-anchor="middle" x="840.5" y="-2509.8" font-family="Times,serif" font-size="14.00" fill="#000000">Channel.empty</text>
</g>
<!-- p5 -->
<g id="node9" class="node">
<title>p5</title>
<ellipse fill="#000000" stroke="#000000" cx="898.6" cy="-2429.8" rx="1.8" ry="1.8"/>
</g>
<!-- p4&#45;&gt;p5 -->
<g id="edge6" class="edge">
<title>p4&#45;&gt;p5</title>
<path fill="none" stroke="#000000" d="M898.6,-2498.4967C898.6,-2488.0042 898.6,-2458.8543 898.6,-2442.0906"/>
<polygon fill="#000000" stroke="#000000" points="902.1001,-2441.6036 898.6,-2431.6037 895.1001,-2441.6037 902.1001,-2441.6036"/>
<text text-anchor="middle" x="1002.6" y="-2469.6" font-family="Times,serif" font-size="14.00" fill="#000000">input_mzmls_align_unpicked</text>
</g>
<!-- p6 -->
<g id="node10" class="node">
<title>p6</title>
<ellipse fill="#000000" stroke="#000000" cx="865.6" cy="-2502.4" rx="3.6" ry="3.6"/>
<text text-anchor="middle" x="797" y="-2487.6" font-family="Times,serif" font-size="14.00" fill="#000000">Channel.fromPath</text>
</g>
<!-- p7 -->
<g id="node11" class="node">
<title>p7</title>
<ellipse fill="none" stroke="#000000" cx="865.6" cy="-2429.8" rx="3.5" ry="3.5"/>
<text text-anchor="middle" x="891.1" y="-2437.1" font-family="Times,serif" font-size="14.00" fill="#000000">ifEmpty</text>
</g>
<!-- p6&#45;&gt;p7 -->
<g id="edge7" class="edge">
<title>p6&#45;&gt;p7</title>
<path fill="none" stroke="#000000" d="M865.6,-2498.4967C865.6,-2488.3576 865.6,-2460.797 865.6,-2443.8256"/>
<polygon fill="#000000" stroke="#000000" points="869.1001,-2443.3754 865.6,-2433.3755 862.1001,-2443.3755 869.1001,-2443.3754"/>
</g>
<!-- p15 -->
<g id="node12" class="node">
<title>p15</title>
<ellipse fill="none" stroke="#000000" cx="777.6" cy="-2357.2" rx="3.5" ry="3.5"/>
<text text-anchor="middle" x="760.6" y="-2364.5" font-family="Times,serif" font-size="14.00" fill="#000000">mix</text>
</g>
<!-- p7&#45;&gt;p15 -->
<g id="edge8" class="edge">
<title>p7&#45;&gt;p15</title>
<path fill="none" stroke="#000000" d="M864.5463,-2426.2747C861.6344,-2417.1185 852.6162,-2392.3548 836.6,-2378.8 823.4757,-2367.6926 804.1455,-2362.0745 791.2273,-2359.3969"/>
<polygon fill="#000000" stroke="#000000" points="791.6716,-2355.9216 781.2183,-2357.6475 790.4663,-2362.817 791.6716,-2355.9216"/>
<text text-anchor="middle" x="889.1" y="-2382.6" font-family="Times,serif" font-size="14.00" fill="#000000">input_fasta</text>
</g>
<!-- p16 -->
<g id="node22" class="node">
<title>p16</title>
<ellipse fill="none" stroke="#000000" cx="777.6" cy="-2284.6" rx="131.077" ry="18"/>
<text text-anchor="middle" x="777.6" y="-2280.9" font-family="Times,serif" font-size="14.00" fill="#000000">generate_decoy_database</text>
</g>
<!-- p15&#45;&gt;p16 -->
<g id="edge15" class="edge">
<title>p15&#45;&gt;p16</title>
<path fill="none" stroke="#000000" d="M777.6,-2353.6984C777.6,-2346.334 777.6,-2328.6304 777.6,-2312.9875"/>
<polygon fill="#000000" stroke="#000000" points="781.1001,-2312.6393 777.6,-2302.6393 774.1001,-2312.6394 781.1001,-2312.6393"/>
</g>
<!-- p8 -->
<g id="node13" class="node">
<title>p8</title>
<ellipse fill="#000000" stroke="#000000" cx="610.6" cy="-2502.4" rx="3.6" ry="3.6"/>
<text text-anchor="middle" x="552.5" y="-2509.8" font-family="Times,serif" font-size="14.00" fill="#000000">Channel.empty</text>
</g>
<!-- p14 -->
<g id="node14" class="node">
<title>p14</title>
<ellipse fill="none" stroke="#000000" cx="702.6" cy="-2429.8" rx="141.8751" ry="18"/>
<text text-anchor="middle" x="702.6" y="-2426.1" font-family="Times,serif" font-size="14.00" fill="#000000">generate_proteins_from_vcf</text>
</g>
<!-- p8&#45;&gt;p14 -->
<g id="edge9" class="edge">
<title>p8&#45;&gt;p14</title>
<path fill="none" stroke="#000000" d="M609.3004,-2499.0046C606.8851,-2492.0719 602.5577,-2476.0776 609.6,-2465.8 613.3627,-2460.3086 623.2564,-2454.868 635.2582,-2449.9431"/>
<polygon fill="#000000" stroke="#000000" points="636.7006,-2453.1385 644.7804,-2446.2852 634.1904,-2446.604 636.7006,-2453.1385"/>
<text text-anchor="middle" x="664.6" y="-2469.6" font-family="Times,serif" font-size="14.00" fill="#000000">input_fasta_vcf</text>
</g>
<!-- p14&#45;&gt;p15 -->
<g id="edge14" class="edge">
<title>p14&#45;&gt;p15</title>
<path fill="none" stroke="#000000" d="M706.2856,-2411.7538C709.3149,-2400.9737 714.6175,-2387.6922 723.6,-2378.8 734.5711,-2367.9392 751.6985,-2362.3468 763.7156,-2359.6038"/>
<polygon fill="#000000" stroke="#000000" points="764.7407,-2362.9721 773.9165,-2357.6754 763.4404,-2356.0939 764.7407,-2362.9721"/>
<text text-anchor="middle" x="780.1" y="-2382.6" font-family="Times,serif" font-size="14.00" fill="#000000">appended_fasta</text>
</g>
<!-- p9 -->
<g id="node15" class="node">
<title>p9</title>
<ellipse fill="#000000" stroke="#000000" cx="454.6" cy="-159.6" rx="3.6" ry="3.6"/>
<text text-anchor="middle" x="505.5" y="-167" font-family="Times,serif" font-size="14.00" fill="#000000">Channel.empty</text>
</g>
<!-- p57 -->
<g id="node16" class="node">
<title>p57</title>
<ellipse fill="none" stroke="#000000" cx="386.6" cy="-72.6" rx="89.0842" ry="18"/>
<text text-anchor="middle" x="386.6" y="-68.9" font-family="Times,serif" font-size="14.00" fill="#000000">predict_peptides</text>
</g>
<!-- p9&#45;&gt;p57 -->
<g id="edge10" class="edge">
<title>p9&#45;&gt;p57</title>
<path fill="none" stroke="#000000" d="M453.7327,-156.0701C451.451,-147.3134 444.6142,-124.1763 432.6,-108.6 429.3542,-104.3918 425.5095,-100.3979 421.4473,-96.7069"/>
<polygon fill="#000000" stroke="#000000" points="423.3762,-93.7563 413.4674,-90.0056 418.8745,-99.1168 423.3762,-93.7563"/>
<text text-anchor="middle" x="487.1" y="-112.4" font-family="Times,serif" font-size="14.00" fill="#000000">input_alleles</text>
</g>
<!-- p58 -->
<g id="node59" class="node">
<title>p58</title>
<ellipse fill="#000000" stroke="#000000" cx="386.6" cy="-1.8" rx="1.8" ry="1.8"/>
</g>
<!-- p57&#45;&gt;p58 -->
<g id="edge64" class="edge">
<title>p57&#45;&gt;p58</title>
<path fill="none" stroke="#000000" d="M386.6,-54.3672C386.6,-41.7838 386.6,-25.3818 386.6,-14.2703"/>
<polygon fill="#000000" stroke="#000000" points="390.1001,-13.9527 386.6,-3.9527 383.1001,-13.9527 390.1001,-13.9527"/>
<text text-anchor="middle" x="456.1" y="-25.4" font-family="Times,serif" font-size="14.00" fill="#000000">predicted_peptides</text>
</g>
<!-- p10 -->
<g id="node17" class="node">
<title>p10</title>
<ellipse fill="#000000" stroke="#000000" cx="735.6" cy="-987.6" rx="3.6" ry="3.6"/>
<text text-anchor="middle" x="786.5" y="-995" font-family="Times,serif" font-size="14.00" fill="#000000">Channel.empty</text>
</g>
<!-- p43 -->
<g id="node18" class="node">
<title>p43</title>
<ellipse fill="none" stroke="#000000" cx="757.6" cy="-900.6" rx="73.387" ry="18"/>
<text text-anchor="middle" x="757.6" y="-896.9" font-family="Times,serif" font-size="14.00" fill="#000000">predict_psms</text>
</g>
<!-- p10&#45;&gt;p43 -->
<g id="edge11" class="edge">
<title>p10&#45;&gt;p43</title>
<path fill="none" stroke="#000000" d="M735.035,-983.7943C733.8941,-975.1881 731.8102,-953.6518 736.6,-936.6 737.453,-933.5632 738.6245,-930.5168 739.9812,-927.552"/>
<polygon fill="#000000" stroke="#000000" points="743.2022,-928.948 744.783,-918.4718 737.0141,-925.6756 743.2022,-928.948"/>
<text text-anchor="middle" x="807.1" y="-940.4" font-family="Times,serif" font-size="14.00" fill="#000000">input_alleles_refine</text>
</g>
<!-- p44 -->
<g id="node44" class="node">
<title>p44</title>
<ellipse fill="none" stroke="#000000" cx="822.6" cy="-813.6" rx="136.4758" ry="18"/>
<text text-anchor="middle" x="822.6" y="-809.9" font-family="Times,serif" font-size="14.00" fill="#000000">filter_psms_by_predictions</text>
</g>
<!-- p43&#45;&gt;p44 -->
<g id="edge50" class="edge">
<title>p43&#45;&gt;p44</title>
<path fill="none" stroke="#000000" d="M771.068,-882.5735C780.3063,-870.2085 792.7123,-853.6036 803.0367,-839.7847"/>
<polygon fill="#000000" stroke="#000000" points="805.9678,-841.7093 809.1492,-831.6034 800.36,-837.5196 805.9678,-841.7093"/>
<text text-anchor="middle" x="842.1" y="-853.4" font-family="Times,serif" font-size="14.00" fill="#000000">peptide_filter</text>
</g>
<!-- p11 -->
<g id="node19" class="node">
<title>p11</title>
<ellipse fill="#000000" stroke="#000000" cx="743.6" cy="-2502.4" rx="3.6" ry="3.6"/>
<text text-anchor="middle" x="685.5" y="-2509.8" font-family="Times,serif" font-size="14.00" fill="#000000">Channel.empty</text>
</g>
<!-- p11&#45;&gt;p14 -->
<g id="edge12" class="edge">
<title>p11&#45;&gt;p14</title>
<path fill="none" stroke="#000000" d="M741.6225,-2498.8984C737.3436,-2491.3216 726.884,-2472.8005 717.8701,-2456.8392"/>
<polygon fill="#000000" stroke="#000000" points="720.7526,-2454.8257 712.7875,-2447.8393 714.6574,-2458.2679 720.7526,-2454.8257"/>
<text text-anchor="middle" x="764.1" y="-2469.6" font-family="Times,serif" font-size="14.00" fill="#000000">input_vcf</text>
</g>
<!-- p12 -->
<g id="node20" class="node">
<title>p12</title>
<ellipse fill="#000000" stroke="#000000" cx="1129.6" cy="-2502.4" rx="3.6" ry="3.6"/>
</g>
<!-- p13 -->
<g id="node21" class="node">
<title>p13</title>
<ellipse fill="none" stroke="#000000" cx="1129.6" cy="-2429.8" rx="116.1796" ry="18"/>
<text text-anchor="middle" x="1129.6" y="-2426.1" font-family="Times,serif" font-size="14.00" fill="#000000">output_documentation</text>
</g>
<!-- p12&#45;&gt;p13 -->
<g id="edge13" class="edge">
<title>p12&#45;&gt;p13</title>
<path fill="none" stroke="#000000" d="M1129.6,-2498.4967C1129.6,-2490.8869 1129.6,-2473.4632 1129.6,-2458.0684"/>
<polygon fill="#000000" stroke="#000000" points="1133.1001,-2457.8802 1129.6,-2447.8802 1126.1001,-2457.8802 1133.1001,-2457.8802"/>
<text text-anchor="middle" x="1173.6" y="-2469.6" font-family="Times,serif" font-size="14.00" fill="#000000">output_docs</text>
</g>
<!-- p19 -->
<g id="node23" class="node">
<title>p19</title>
<ellipse fill="none" stroke="#000000" cx="851.6" cy="-2212.1" rx="3.5" ry="3.5"/>
<text text-anchor="middle" x="832.6" y="-2219.4" font-family="Times,serif" font-size="14.00" fill="#000000">first</text>
</g>
<!-- p16&#45;&gt;p19 -->
<g id="edge16" class="edge">
<title>p16&#45;&gt;p19</title>
<path fill="none" stroke="#000000" d="M814.0803,-2267.3038C822.2704,-2262.1561 830.3688,-2255.9022 836.6,-2248.6 842.2034,-2242.0335 845.9247,-2233.0888 848.2591,-2225.6977"/>
<polygon fill="#000000" stroke="#000000" points="851.6699,-2226.4906 850.8572,-2215.927 844.9049,-2224.6917 851.6699,-2226.4906"/>
<text text-anchor="middle" x="906.6" y="-2237.4" font-family="Times,serif" font-size="14.00" fill="#000000">fastafile_decoy_1</text>
</g>
<!-- p21 -->
<g id="node24" class="node">
<title>p21</title>
<ellipse fill="none" stroke="#000000" cx="711.6" cy="-2187.1" rx="3.5" ry="3.5"/>
<text text-anchor="middle" x="692.6" y="-2194.4" font-family="Times,serif" font-size="14.00" fill="#000000">first</text>
</g>
<!-- p16&#45;&gt;p21 -->
<g id="edge17" class="edge">
<title>p16&#45;&gt;p21</title>
<path fill="none" stroke="#000000" d="M728.672,-2267.7982C720.6731,-2262.8627 713.4328,-2256.5726 708.6,-2248.6 699.6905,-2233.9024 703.1556,-2213.4079 706.9659,-2200.1954"/>
<polygon fill="#000000" stroke="#000000" points="710.3613,-2201.0778 710.217,-2190.484 703.7234,-2198.8556 710.3613,-2201.0778"/>
<text text-anchor="middle" x="770.6" y="-2237.4" font-family="Times,serif" font-size="14.00" fill="#000000">fastafile_decoy_2</text>
</g>
<!-- p19&#45;&gt;p20 -->
<g id="edge21" class="edge">
<title>p19&#45;&gt;p20</title>
<path fill="none" stroke="#000000" d="M850.5247,-2208.6322C848.5592,-2202.2933 844.217,-2188.2898 840.1872,-2175.2937"/>
<polygon fill="#000000" stroke="#000000" points="843.5157,-2174.2103 837.211,-2165.6955 836.8298,-2176.2835 843.5157,-2174.2103"/>
</g>
<!-- p22 -->
<g id="node26" class="node">
<title>p22</title>
<ellipse fill="none" stroke="#000000" cx="719.6" cy="-2060.6" rx="81.4863" ry="18"/>
<text text-anchor="middle" x="719.6" y="-2056.9" font-family="Times,serif" font-size="14.00" fill="#000000">index_peptides</text>
</g>
<!-- p21&#45;&gt;p22 -->
<g id="edge23" class="edge">
<title>p21&#45;&gt;p22</title>
<path fill="none" stroke="#000000" d="M711.8308,-2183.4505C712.6962,-2169.7658 715.8018,-2120.6595 717.8147,-2088.8305"/>
<polygon fill="#000000" stroke="#000000" points="721.3124,-2088.9758 718.4506,-2078.7748 714.3263,-2088.534 721.3124,-2088.9758"/>
</g>
<!-- p20&#45;&gt;p22 -->
<g id="edge22" class="edge">
<title>p20&#45;&gt;p22</title>
<path fill="none" stroke="#000000" d="M808.9351,-2129.9943C792.0844,-2116.9048 768.9023,-2098.8973 750.3761,-2084.5064"/>
<polygon fill="#000000" stroke="#000000" points="752.2756,-2081.5501 742.2312,-2078.1796 747.9814,-2087.0782 752.2756,-2081.5501"/>
<text text-anchor="middle" x="807.6" y="-2100.4" font-family="Times,serif" font-size="14.00" fill="#000000">id_files</text>
</g>
<!-- p23 -->
<g id="node27" class="node">
<title>p23</title>
<ellipse fill="none" stroke="#000000" cx="603.6" cy="-1973.6" rx="150.2735" ry="18"/>
<text text-anchor="middle" x="603.6" y="-1969.9" font-family="Times,serif" font-size="14.00" fill="#000000">calculate_fdr_for_idalignment</text>
</g>
<!-- p22&#45;&gt;p23 -->
<g id="edge24" class="edge">
<title>p22&#45;&gt;p23</title>
<path fill="none" stroke="#000000" d="M696.4045,-2043.2033C679.0111,-2030.1583 654.9911,-2012.1433 635.746,-1997.7095"/>
<polygon fill="#000000" stroke="#000000" points="637.6529,-1994.7647 627.5528,-1991.5646 633.4528,-2000.3647 637.6529,-1994.7647"/>
<text text-anchor="middle" x="709.1" y="-2013.4" font-family="Times,serif" font-size="14.00" fill="#000000">id_files_idx</text>
</g>
<!-- p29 -->
<g id="node28" class="node">
<title>p29</title>
<ellipse fill="none" stroke="#000000" cx="783.6" cy="-1930.1" rx="3.5" ry="3.5"/>
<text text-anchor="middle" x="818.1" y="-1937.4" font-family="Times,serif" font-size="14.00" fill="#000000">collectFile</text>
</g>
<!-- p22&#45;&gt;p29 -->
<g id="edge25" class="edge">
<title>p22&#45;&gt;p29</title>
<path fill="none" stroke="#000000" d="M739.3503,-2042.8599C744.5447,-2037.4104 749.7617,-2031.1192 753.6,-2024.6 769.2174,-1998.0741 777.6549,-1962.4944 781.3227,-1943.4537"/>
<polygon fill="#000000" stroke="#000000" points="784.7717,-1944.0485 783.0717,-1933.5909 777.8792,-1942.8262 784.7717,-1944.0485"/>
<text text-anchor="middle" x="832.1" y="-2013.4" font-family="Times,serif" font-size="14.00" fill="#000000">id_files_idx_original</text>
</g>
<!-- p24 -->
<g id="node29" class="node">
<title>p24</title>
<ellipse fill="none" stroke="#000000" cx="601.6" cy="-1886.6" rx="130.777" ry="18"/>
<text text-anchor="middle" x="601.6" y="-1882.9" font-family="Times,serif" font-size="14.00" fill="#000000">filter_fdr_for_idalignment</text>
</g>
<!-- p23&#45;&gt;p24 -->
<g id="edge26" class="edge">
<title>p23&#45;&gt;p24</title>
<path fill="none" stroke="#000000" d="M603.1856,-1955.5735C602.9148,-1943.7918 602.5554,-1928.1607 602.2473,-1914.7581"/>
<polygon fill="#000000" stroke="#000000" points="605.7429,-1914.5202 602.0139,-1904.6034 598.7447,-1914.6812 605.7429,-1914.5202"/>
<text text-anchor="middle" x="658.1" y="-1926.4" font-family="Times,serif" font-size="14.00" fill="#000000">id_files_idx_fdr</text>
</g>
<!-- p34 -->
<g id="node35" class="node">
<title>p34</title>
<ellipse fill="none" stroke="#000000" cx="784.6" cy="-1508.6" rx="89.0842" ry="18"/>
<text text-anchor="middle" x="784.6" y="-1504.9" font-family="Times,serif" font-size="14.00" fill="#000000">align_idxml_files</text>
</g>
<!-- p29&#45;&gt;p34 -->
<g id="edge32" class="edge">
<title>p29&#45;&gt;p34</title>
<path fill="none" stroke="#000000" d="M783.6719,-1926.4534C783.9012,-1914.5015 784.6,-1875.4251 784.6,-1843.1 784.6,-1843.1 784.6,-1843.1 784.6,-1581.1 784.6,-1566.5003 784.6,-1550.2468 784.6,-1536.8354"/>
<polygon fill="#000000" stroke="#000000" points="788.1001,-1536.775 784.6,-1526.775 781.1001,-1536.775 788.1001,-1536.775"/>
<text text-anchor="middle" x="844.6" y="-1694.4" font-family="Times,serif" font-size="14.00" fill="#000000">input_ids_sorted</text>
</g>
<!-- p25 -->
<g id="node30" class="node">
<title>p25</title>
<ellipse fill="none" stroke="#000000" cx="600.6" cy="-1814.1" rx="3.5" ry="3.5"/>
<text text-anchor="middle" x="572.6" y="-1821.4" font-family="Times,serif" font-size="14.00" fill="#000000">collect</text>
</g>
<!-- p24&#45;&gt;p25 -->
<g id="edge27" class="edge">
<title>p24&#45;&gt;p25</title>
<path fill="none" stroke="#000000" d="M601.3477,-1868.3052C601.1743,-1855.7364 600.9478,-1839.3149 600.7897,-1827.8543"/>
<polygon fill="#000000" stroke="#000000" points="604.2885,-1827.7332 600.6508,-1817.7824 597.2891,-1827.8298 604.2885,-1827.7332"/>
<text text-anchor="middle" x="686.1" y="-1839.4" font-family="Times,serif" font-size="14.00" fill="#000000">id_files_idx_fdr_filtered</text>
</g>
<!-- p26 -->
<g id="node31" class="node">
<title>p26</title>
<ellipse fill="none" stroke="#000000" cx="600.6" cy="-1741.6" rx="51.9908" ry="18"/>
<text text-anchor="middle" x="600.6" y="-1737.9" font-family="Times,serif" font-size="14.00" fill="#000000">align_ids</text>
</g>
<!-- p25&#45;&gt;p26 -->
<g id="edge28" class="edge">
<title>p25&#45;&gt;p26</title>
<path fill="none" stroke="#000000" d="M600.6,-1810.2021C600.6,-1802.6027 600.6,-1785.203 600.6,-1769.8295"/>
<polygon fill="#000000" stroke="#000000" points="604.1001,-1769.6553 600.6,-1759.6553 597.1001,-1769.6553 604.1001,-1769.6553"/>
</g>
<!-- p30 -->
<g id="node32" class="node">
<title>p30</title>
<ellipse fill="none" stroke="#000000" cx="600.6" cy="-1669.1" rx="3.5" ry="3.5"/>
<text text-anchor="middle" x="573.1" y="-1676.4" font-family="Times,serif" font-size="14.00" fill="#000000">flatten</text>
</g>
<!-- p26&#45;&gt;p30 -->
<g id="edge29" class="edge">
<title>p26&#45;&gt;p30</title>
<path fill="none" stroke="#000000" d="M600.6,-1723.3052C600.6,-1710.7364 600.6,-1694.3149 600.6,-1682.8543"/>
<polygon fill="#000000" stroke="#000000" points="604.1001,-1682.7824 600.6,-1672.7824 597.1001,-1682.7825 604.1001,-1682.7824"/>
<text text-anchor="middle" x="647.6" y="-1694.4" font-family="Times,serif" font-size="14.00" fill="#000000">id_files_trafo</text>
</g>
<!-- p31 -->
<g id="node36" class="node">
<title>p31</title>
<ellipse fill="none" stroke="#000000" cx="600.6" cy="-1625.1" rx="3.5" ry="3.5"/>
<text text-anchor="middle" x="559.1" y="-1632.4" font-family="Times,serif" font-size="14.00" fill="#000000">collectFile</text>
</g>
<!-- p30&#45;&gt;p31 -->
<g id="edge33" class="edge">
<title>p30&#45;&gt;p31</title>
<path fill="none" stroke="#000000" d="M600.6,-1665.3486C600.6,-1659.5686 600.6,-1648.1915 600.6,-1639.0038"/>
<polygon fill="#000000" stroke="#000000" points="604.1001,-1638.8419 600.6,-1628.8419 597.1001,-1638.842 604.1001,-1638.8419"/>
</g>
<!-- p33 -->
<g id="node34" class="node">
<title>p33</title>
<ellipse fill="none" stroke="#000000" cx="310.6" cy="-1508.6" rx="88.2844" ry="18"/>
<text text-anchor="middle" x="310.6" y="-1504.9" font-family="Times,serif" font-size="14.00" fill="#000000">align_mzml_files</text>
</g>
<!-- p28&#45;&gt;p33 -->
<g id="edge31" class="edge">
<title>p28&#45;&gt;p33</title>
<path fill="none" stroke="#000000" d="M310.6,-2100.4532C310.6,-2088.5008 310.6,-2049.4229 310.6,-2017.1 310.6,-2017.1 310.6,-2017.1 310.6,-1581.1 310.6,-1566.5003 310.6,-1550.2468 310.6,-1536.8354"/>
<polygon fill="#000000" stroke="#000000" points="314.1001,-1536.775 310.6,-1526.775 307.1001,-1536.775 314.1001,-1536.775"/>
<text text-anchor="middle" x="395.1" y="-1781.4" font-family="Times,serif" font-size="14.00" fill="#000000">input_mzmls_combined</text>
</g>
<!-- p49 -->
<g id="node38" class="node">
<title>p49</title>
<ellipse fill="none" stroke="#000000" cx="277.6" cy="-464.6" rx="165.9709" ry="18"/>
<text text-anchor="middle" x="277.6" y="-460.9" font-family="Times,serif" font-size="14.00" fill="#000000">quantify_identifications_targeted</text>
</g>
<!-- p33&#45;&gt;p49 -->
<g id="edge37" class="edge">
<title>p33&#45;&gt;p49</title>
<path fill="none" stroke="#000000" d="M291.7767,-1490.7882C279.4455,-1477.1421 265.6,-1457.1363 265.6,-1436.1 265.6,-1436.1 265.6,-1436.1 265.6,-523.1 265.6,-513.0498 267.3206,-502.2228 269.4588,-492.6484"/>
<polygon fill="#000000" stroke="#000000" points="272.8796,-493.3945 271.8812,-482.8468 266.0841,-491.715 272.8796,-493.3945"/>
<text text-anchor="middle" x="334.1" y="-940.4" font-family="Times,serif" font-size="14.00" fill="#000000">mzml_files_aligned</text>
</g>
<!-- p35 -->
<g id="node39" class="node">
<title>p35</title>
<ellipse fill="none" stroke="#000000" cx="785.6" cy="-1436.1" rx="3.5" ry="3.5"/>
<text text-anchor="middle" x="757.6" y="-1443.4" font-family="Times,serif" font-size="14.00" fill="#000000">collect</text>
</g>
<!-- p34&#45;&gt;p35 -->
<g id="edge38" class="edge">
<title>p34&#45;&gt;p35</title>
<path fill="none" stroke="#000000" d="M784.8523,-1490.3052C785.0257,-1477.7364 785.2522,-1461.3149 785.4103,-1449.8543"/>
<polygon fill="#000000" stroke="#000000" points="788.9109,-1449.8298 785.5492,-1439.7824 781.9115,-1449.7332 788.9109,-1449.8298"/>
<text text-anchor="middle" x="853.6" y="-1461.4" font-family="Times,serif" font-size="14.00" fill="#000000">idxml_files_aligned</text>
</g>
<!-- p32 -->
<g id="node37" class="node">
<title>p32</title>
<ellipse fill="none" stroke="#000000" cx="600.6" cy="-1581.1" rx="3.5" ry="3.5"/>
<text text-anchor="middle" x="583.1" y="-1588.4" font-family="Times,serif" font-size="14.00" fill="#000000">into</text>
</g>
<!-- p31&#45;&gt;p32 -->
<g id="edge34" class="edge">
<title>p31&#45;&gt;p32</title>
<path fill="none" stroke="#000000" d="M600.6,-1621.3486C600.6,-1615.5686 600.6,-1604.1915 600.6,-1595.0038"/>
<polygon fill="#000000" stroke="#000000" points="604.1001,-1594.8419 600.6,-1584.8419 597.1001,-1594.842 604.1001,-1594.8419"/>
</g>
<!-- p32&#45;&gt;p33 -->
<g id="edge35" class="edge">
<title>p32&#45;&gt;p33</title>
<path fill="none" stroke="#000000" d="M596.9536,-1580.4451C583.4518,-1578.0006 535.0446,-1569.0641 495.6,-1559.6 453.6982,-1549.5463 406.9135,-1536.6333 370.8758,-1526.3164"/>
<polygon fill="#000000" stroke="#000000" points="371.5871,-1522.8792 361.0093,-1523.4799 369.6529,-1529.6067 371.5871,-1522.8792"/>
<text text-anchor="middle" x="563.1" y="-1548.4" font-family="Times,serif" font-size="14.00" fill="#000000">trafo_sorted_mzml</text>
</g>
<!-- p32&#45;&gt;p34 -->
<g id="edge36" class="edge">
<title>p32&#45;&gt;p34</title>
<path fill="none" stroke="#000000" d="M603.7485,-1578.8157C612.5096,-1572.5502 638.0777,-1554.8787 661.6,-1544.6 679.0552,-1536.9725 698.5919,-1530.4204 716.8657,-1525.0774"/>
<polygon fill="#000000" stroke="#000000" points="717.916,-1528.4176 726.5766,-1522.3146 716.0005,-1521.6848 717.916,-1528.4176"/>
<text text-anchor="middle" x="716.1" y="-1548.4" font-family="Times,serif" font-size="14.00" fill="#000000">trafo_sorted_id</text>
</g>
<!-- p51 -->
<g id="node52" class="node">
<title>p51</title>
<ellipse fill="none" stroke="#000000" cx="221.6" cy="-392.1" rx="3.5" ry="3.5"/>
<text text-anchor="middle" x="193.6" y="-399.4" font-family="Times,serif" font-size="14.00" fill="#000000">collect</text>
</g>
<!-- p49&#45;&gt;p51 -->
<g id="edge56" class="edge">
<title>p49&#45;&gt;p51</title>
<path fill="none" stroke="#000000" d="M239.9736,-447.0651C233.0503,-442.0918 226.7176,-435.9732 222.6,-428.6 218.7983,-421.7924 218.4189,-413.1005 219.0509,-405.9064"/>
<polygon fill="#000000" stroke="#000000" points="222.5424,-406.2339 220.6435,-395.8107 215.6279,-405.1431 222.5424,-406.2339"/>
<text text-anchor="middle" x="267.6" y="-417.4" font-family="Times,serif" font-size="14.00" fill="#000000">feature_files</text>
</g>
<!-- p50 -->
<g id="node53" class="node">
<title>p50</title>
<ellipse fill="#000000" stroke="#000000" cx="334.6" cy="-392.1" rx="1.8" ry="1.8"/>
</g>
<!-- p49&#45;&gt;p50 -->
<g id="edge57" class="edge">
<title>p49&#45;&gt;p50</title>
<path fill="none" stroke="#000000" d="M296.621,-446.6566C302.0613,-441.1065 307.8094,-434.8127 312.6,-428.6 318.8858,-420.4484 324.837,-410.3768 328.9609,-402.8796"/>
<polygon fill="#000000" stroke="#000000" points="332.1475,-404.3404 333.7226,-393.8633 325.9577,-401.0714 332.1475,-404.3404"/>
<text text-anchor="middle" x="375.6" y="-417.4" font-family="Times,serif" font-size="14.00" fill="#000000">feature_files_2</text>
</g>
<!-- p36 -->
<g id="node40" class="node">
<title>p36</title>
<ellipse fill="none" stroke="#000000" cx="792.6" cy="-1377.6" rx="134.5761" ry="18"/>
<text text-anchor="middle" x="792.6" y="-1373.9" font-family="Times,serif" font-size="14.00" fill="#000000">merge_aligned_idxml_files</text>
</g>
<!-- p35&#45;&gt;p36 -->
<g id="edge39" class="edge">
<title>p35&#45;&gt;p36</title>
<path fill="none" stroke="#000000" d="M786.0169,-1432.6158C786.6638,-1427.21 787.9682,-1416.3089 789.2465,-1405.6259"/>
<polygon fill="#000000" stroke="#000000" points="792.7288,-1405.9818 790.4418,-1395.6368 785.7784,-1405.1501 792.7288,-1405.9818"/>
</g>
<!-- p37 -->
<g id="node41" class="node">
<title>p37</title>
<ellipse fill="none" stroke="#000000" cx="797.6" cy="-1290.6" rx="183.0677" ry="18"/>
<text text-anchor="middle" x="797.6" y="-1286.9" font-family="Times,serif" font-size="14.00" fill="#000000">extract_psm_features_for_percolator</text>
</g>
<!-- p36&#45;&gt;p37 -->
<g id="edge40" class="edge">
<title>p36&#45;&gt;p37</title>
<path fill="none" stroke="#000000" d="M793.636,-1359.5735C794.3131,-1347.7918 795.2115,-1332.1607 795.9817,-1318.7581"/>
<polygon fill="#000000" stroke="#000000" points="799.4857,-1318.7877 796.5653,-1308.6034 792.4972,-1318.386 799.4857,-1318.7877"/>
<text text-anchor="middle" x="832.6" y="-1330.4" font-family="Times,serif" font-size="14.00" fill="#000000">id_merged</text>
</g>
<!-- p38 -->
<g id="node42" class="node">
<title>p38</title>
<ellipse fill="none" stroke="#000000" cx="596.6" cy="-1203.6" rx="79.8859" ry="18"/>
<text text-anchor="middle" x="596.6" y="-1199.9" font-family="Times,serif" font-size="14.00" fill="#000000">run_percolator</text>
</g>
<!-- p37&#45;&gt;p38 -->
<g id="edge41" class="edge">
<title>p37&#45;&gt;p38</title>
<path fill="none" stroke="#000000" d="M692.5156,-1275.8353C663.7333,-1270.2214 637.2474,-1263.0931 625.6,-1254.6 617.4408,-1248.6505 611.2519,-1239.6603 606.7309,-1230.8768"/>
<polygon fill="#000000" stroke="#000000" points="609.8169,-1229.2099 602.4654,-1221.5806 603.4547,-1232.1291 609.8169,-1229.2099"/>
<text text-anchor="middle" x="701.1" y="-1243.4" font-family="Times,serif" font-size="14.00" fill="#000000">id_files_merged_psm</text>
</g>
<!-- p42 -->
<g id="node43" class="node">
<title>p42</title>
<ellipse fill="none" stroke="#000000" cx="891.6" cy="-1149.6" rx="98.5829" ry="18"/>
<text text-anchor="middle" x="891.6" y="-1145.9" font-family="Times,serif" font-size="14.00" fill="#000000">export_mztab_psm</text>
</g>
<!-- p37&#45;&gt;p42 -->
<g id="edge42" class="edge">
<title>p37&#45;&gt;p42</title>
<path fill="none" stroke="#000000" d="M800.0512,-1272.356C801.9354,-1262.2651 805.1695,-1249.7518 810.6,-1239.6 823.8417,-1214.8459 845.311,-1191.4263 862.8202,-1174.6854"/>
<polygon fill="#000000" stroke="#000000" points="865.6169,-1176.863 870.5425,-1167.4827 860.8423,-1171.744 865.6169,-1176.863"/>
<text text-anchor="middle" x="911.1" y="-1243.4" font-family="Times,serif" font-size="14.00" fill="#000000">id_files_merged_psm_refine</text>
</g>
<!-- p37&#45;&gt;p44 -->
<g id="edge43" class="edge">
<title>p37&#45;&gt;p44</title>
<path fill="none" stroke="#000000" d="M936.9515,-1278.8413C970.0038,-1273.4842 999.2653,-1265.7451 1011.6,-1254.6 1029.0404,-1238.8416 1025.6,-1227.1052 1025.6,-1203.6 1025.6,-1203.6 1025.6,-1203.6 1025.6,-900.6 1025.6,-872.2372 957.8053,-847.601 900.5725,-831.8564"/>
<polygon fill="#000000" stroke="#000000" points="901.3269,-828.435 890.7608,-829.2142 899.5067,-835.1942 901.3269,-828.435"/>
<text text-anchor="middle" x="1134.1" y="-1037.9" font-family="Times,serif" font-size="14.00" fill="#000000">id_files_merged_psm_refine_2</text>
</g>
<!-- p39 -->
<g id="node45" class="node">
<title>p39</title>
<ellipse fill="none" stroke="#000000" cx="405.6" cy="-1041.6" rx="90.1842" ry="18"/>
<text text-anchor="middle" x="405.6" y="-1037.9" font-family="Times,serif" font-size="14.00" fill="#000000">filter_by_q_value</text>
</g>
<!-- p38&#45;&gt;p39 -->
<g id="edge44" class="edge">
<title>p38&#45;&gt;p39</title>
<path fill="none" stroke="#000000" d="M518.1134,-1200.108C467.0267,-1195.9985 406.9507,-1187.0559 390.6,-1167.6 367.6523,-1140.2942 379.7318,-1097.1272 391.711,-1069.0847"/>
<polygon fill="#000000" stroke="#000000" points="394.9568,-1070.4013 395.8865,-1059.8473 388.5782,-1067.518 394.9568,-1070.4013"/>
<text text-anchor="middle" x="486.1" y="-1145.9" font-family="Times,serif" font-size="14.00" fill="#000000">id_files_merged_psm_perc</text>
</g>
<!-- p40 -->
<g id="node47" class="node">
<title>p40</title>
<ellipse fill="none" stroke="#000000" cx="579.6" cy="-1095.6" rx="114.2798" ry="18"/>
<text text-anchor="middle" x="579.6" y="-1091.9" font-family="Times,serif" font-size="14.00" fill="#000000">filter_by_q_value_first</text>
</g>
<!-- p38&#45;&gt;p40 -->
<g id="edge46" class="edge">
<title>p38&#45;&gt;p40</title>
<path fill="none" stroke="#000000" d="M593.7162,-1185.2793C591.0626,-1168.421 587.0871,-1143.1651 584.0305,-1123.747"/>
<polygon fill="#000000" stroke="#000000" points="587.4537,-1122.9843 582.4412,-1113.6502 580.5388,-1124.0728 587.4537,-1122.9843"/>
<text text-anchor="middle" x="687.1" y="-1145.9" font-family="Times,serif" font-size="14.00" fill="#000000">id_files_merged_psm_perc</text>
</g>
<!-- p42&#45;&gt;p43 -->
<g id="edge49" class="edge">
<title>p42&#45;&gt;p43</title>
<path fill="none" stroke="#000000" d="M891.5741,-1131.5332C891.3438,-1082.8664 889.6043,-951.675 877.6,-936.6 870.457,-927.6299 848.842,-919.942 825.8876,-914.0017"/>
<polygon fill="#000000" stroke="#000000" points="826.5536,-910.5611 816.0064,-911.5642 824.8771,-917.3574 826.5536,-910.5611"/>
<text text-anchor="middle" x="945.1" y="-1037.9" font-family="Times,serif" font-size="14.00" fill="#000000">psm_ids_mztab</text>
</g>
<!-- p45 -->
<g id="node49" class="node">
<title>p45</title>
<ellipse fill="none" stroke="#000000" cx="724.6" cy="-726.6" rx="181.168" ry="18"/>
<text text-anchor="middle" x="724.6" y="-722.9" font-family="Times,serif" font-size="14.00" fill="#000000">run_percolator_on_predicted_subset</text>
</g>
<!-- p44&#45;&gt;p45 -->
<g id="edge51" class="edge">
<title>p44&#45;&gt;p45</title>
<path fill="none" stroke="#000000" d="M802.2943,-795.5735C787.9717,-782.8586 768.5989,-765.6603 752.7815,-751.6183"/>
<polygon fill="#000000" stroke="#000000" points="754.6816,-748.6249 744.8797,-744.6034 750.0343,-753.8597 754.6816,-748.6249"/>
<text text-anchor="middle" x="904.6" y="-766.4" font-family="Times,serif" font-size="14.00" fill="#000000">id_files_merged_psm_pred_filtered</text>
</g>
<!-- p47 -->
<g id="node46" class="node">
<title>p47</title>
<ellipse fill="none" stroke="#000000" cx="417.6" cy="-567.1" rx="3.5" ry="3.5"/>
<text text-anchor="middle" x="400.6" y="-574.4" font-family="Times,serif" font-size="14.00" fill="#000000">mix</text>
</g>
<!-- p39&#45;&gt;p47 -->
<g id="edge45" class="edge">
<title>p39&#45;&gt;p47</title>
<path fill="none" stroke="#000000" d="M409.2004,-1023.3531C412.7351,-1003.8255 417.6,-971.8993 417.6,-944.1 417.6,-944.1 417.6,-944.1 417.6,-639.6 417.6,-619.1563 417.6,-595.4699 417.6,-580.8849"/>
<polygon fill="#000000" stroke="#000000" points="421.1001,-580.721 417.6,-570.721 414.1001,-580.721 421.1001,-580.721"/>
<text text-anchor="middle" x="543.1" y="-809.9" font-family="Times,serif" font-size="14.00" fill="#000000">id_files_merged_psm_perc_filtered</text>
</g>
<!-- p48 -->
<g id="node51" class="node">
<title>p48</title>
<ellipse fill="none" stroke="#000000" cx="357.6" cy="-523.1" rx="3.5" ry="3.5"/>
<text text-anchor="middle" x="338.6" y="-530.4" font-family="Times,serif" font-size="14.00" fill="#000000">first</text>
</g>
<!-- p47&#45;&gt;p48 -->
<g id="edge54" class="edge">
<title>p47&#45;&gt;p48</title>
<path fill="none" stroke="#000000" d="M414.7061,-564.9778C406.5686,-559.0103 383.1564,-541.8413 368.9623,-531.4323"/>
<polygon fill="#000000" stroke="#000000" points="370.7401,-528.3958 360.6062,-525.3046 366.6005,-534.0407 370.7401,-528.3958"/>
</g>
<!-- p41 -->
<g id="node48" class="node">
<title>p41</title>
<ellipse fill="none" stroke="#000000" cx="559.6" cy="-987.6" rx="100.9827" ry="18"/>
<text text-anchor="middle" x="559.6" y="-983.9" font-family="Times,serif" font-size="14.00" fill="#000000">export_mztab_perc</text>
</g>
<!-- p40&#45;&gt;p41 -->
<g id="edge47" class="edge">
<title>p40&#45;&gt;p41</title>
<path fill="none" stroke="#000000" d="M573.3873,-1077.4457C571.6299,-1071.7829 569.856,-1065.4798 568.6,-1059.6 565.5476,-1045.3105 563.4136,-1029.1888 561.9924,-1015.8287"/>
<polygon fill="#000000" stroke="#000000" points="565.4673,-1015.4017 561.0015,-1005.7941 558.5012,-1016.0897 565.4673,-1015.4017"/>
<text text-anchor="middle" x="719.1" y="-1037.9" font-family="Times,serif" font-size="14.00" fill="#000000">id_files_merged_psm_perc_filtered_refine</text>
</g>
<!-- p41&#45;&gt;p43 -->
<g id="edge48" class="edge">
<title>p41&#45;&gt;p43</title>
<path fill="none" stroke="#000000" d="M560.7305,-969.5481C562.3927,-958.4862 566.3426,-944.902 575.6,-936.6 591.0287,-922.7637 636.9336,-913.7412 678.7773,-908.1891"/>
<polygon fill="#000000" stroke="#000000" points="679.267,-911.6551 688.7448,-906.92 678.3828,-904.7112 679.267,-911.6551"/>
<text text-anchor="middle" x="653.1" y="-940.4" font-family="Times,serif" font-size="14.00" fill="#000000">percolator_ids_mztab</text>
</g>
<!-- p46 -->
<g id="node50" class="node">
<title>p46</title>
<ellipse fill="none" stroke="#000000" cx="591.6" cy="-639.6" rx="112.3801" ry="18"/>
<text text-anchor="middle" x="591.6" y="-635.9" font-family="Times,serif" font-size="14.00" fill="#000000">filter_refined_q_value</text>
</g>
<!-- p45&#45;&gt;p46 -->
<g id="edge52" class="edge">
<title>p45&#45;&gt;p46</title>
<path fill="none" stroke="#000000" d="M697.3645,-708.7843C676.9686,-695.4426 648.8953,-677.0789 626.797,-662.6236"/>
<polygon fill="#000000" stroke="#000000" points="628.6291,-659.6398 618.3446,-657.0946 624.7972,-665.4978 628.6291,-659.6398"/>
<text text-anchor="middle" x="782.6" y="-679.4" font-family="Times,serif" font-size="14.00" fill="#000000">id_files_merged_psm_pred_perc</text>
</g>
<!-- p46&#45;&gt;p47 -->
<g id="edge53" class="edge">
<title>p46&#45;&gt;p47</title>
<path fill="none" stroke="#000000" d="M551.2436,-622.7848C512.4164,-606.6069 455.992,-583.0967 430.7095,-572.5623"/>
<polygon fill="#000000" stroke="#000000" points="431.8112,-569.2297 421.2342,-568.6143 429.1188,-575.6913 431.8112,-569.2297"/>
<text text-anchor="middle" x="650.6" y="-592.4" font-family="Times,serif" font-size="14.00" fill="#000000">id_files_merged_psm_pred_perc_filtered</text>
</g>
<!-- p48&#45;&gt;p49 -->
<g id="edge55" class="edge">
<title>p48&#45;&gt;p49</title>
<path fill="none" stroke="#000000" d="M354.5616,-520.8782C347.2524,-515.5333 328.0006,-501.4555 310.5818,-488.7179"/>
<polygon fill="#000000" stroke="#000000" points="312.3764,-485.6943 302.2384,-482.6168 308.2445,-491.3448 312.3764,-485.6943"/>
</g>
<!-- p52 -->
<g id="node54" class="node">
<title>p52</title>
<ellipse fill="none" stroke="#000000" cx="221.6" cy="-333.6" rx="121.5784" ry="18"/>
<text text-anchor="middle" x="221.6" y="-329.9" font-family="Times,serif" font-size="14.00" fill="#000000">link_extracted_features</text>
</g>
<!-- p51&#45;&gt;p52 -->
<g id="edge58" class="edge">
<title>p51&#45;&gt;p52</title>
<path fill="none" stroke="#000000" d="M221.6,-388.2617C221.6,-382.7711 221.6,-372.1846 221.6,-361.779"/>
<polygon fill="#000000" stroke="#000000" points="225.1001,-361.6292 221.6,-351.6293 218.1001,-361.6293 225.1001,-361.6292"/>
</g>
<!-- p53 -->
<g id="node55" class="node">
<title>p53</title>
<ellipse fill="none" stroke="#000000" cx="221.6" cy="-246.6" rx="89.0842" ry="18"/>
<text text-anchor="middle" x="221.6" y="-242.9" font-family="Times,serif" font-size="14.00" fill="#000000">resolve_conflicts</text>
</g>
<!-- p52&#45;&gt;p53 -->
<g id="edge59" class="edge">
<title>p52&#45;&gt;p53</title>
<path fill="none" stroke="#000000" d="M221.6,-315.5735C221.6,-303.7918 221.6,-288.1607 221.6,-274.7581"/>
<polygon fill="#000000" stroke="#000000" points="225.1001,-274.6033 221.6,-264.6034 218.1001,-274.6034 225.1001,-274.6033"/>
<text text-anchor="middle" x="274.1" y="-286.4" font-family="Times,serif" font-size="14.00" fill="#000000">consensus_file</text>
</g>
<!-- p54 -->
<g id="node56" class="node">
<title>p54</title>
<ellipse fill="none" stroke="#000000" cx="123.6" cy="-159.6" rx="64.189" ry="18"/>
<text text-anchor="middle" x="123.6" y="-155.9" font-family="Times,serif" font-size="14.00" fill="#000000">export_text</text>
</g>
<!-- p53&#45;&gt;p54 -->
<g id="edge60" class="edge">
<title>p53&#45;&gt;p54</title>
<path fill="none" stroke="#000000" d="M167.1915,-232.2592C148.19,-226.0806 130.1903,-218.4719 124.6,-210.6 119.9651,-204.0735 118.4786,-195.7976 118.495,-187.8213"/>
<polygon fill="#000000" stroke="#000000" points="121.9978,-187.9114 119.2439,-177.6808 115.0168,-187.3958 121.9978,-187.9114"/>
<text text-anchor="middle" x="211.1" y="-199.4" font-family="Times,serif" font-size="14.00" fill="#000000">consensus_file_resolved</text>
</g>
<!-- p56 -->
<g id="node57" class="node">
<title>p56</title>
<ellipse fill="none" stroke="#000000" cx="319.6" cy="-159.6" rx="74.9875" ry="18"/>
<text text-anchor="middle" x="319.6" y="-155.9" font-family="Times,serif" font-size="14.00" fill="#000000">export_mztab</text>
</g>
<!-- p53&#45;&gt;p56 -->
<g id="edge61" class="edge">
<title>p53&#45;&gt;p56</title>
<path fill="none" stroke="#000000" d="M268.0738,-231.0585C278.7613,-225.8357 289.386,-219.1077 297.6,-210.6 303.7902,-204.1885 308.3782,-195.7592 311.7141,-187.6047"/>
<polygon fill="#000000" stroke="#000000" points="315.0961,-188.5428 315.1856,-177.9483 308.5088,-186.1746 315.0961,-188.5428"/>
<text text-anchor="middle" x="403.6" y="-199.4" font-family="Times,serif" font-size="14.00" fill="#000000">consensus_file_resolved_2</text>
</g>
<!-- p55 -->
<g id="node58" class="node">
<title>p55</title>
<ellipse fill="#000000" stroke="#000000" cx="123.6" cy="-72.6" rx="1.8" ry="1.8"/>
</g>
<!-- p54&#45;&gt;p55 -->
<g id="edge62" class="edge">
<title>p54&#45;&gt;p55</title>
<path fill="none" stroke="#000000" d="M123.6,-141.5735C123.6,-124.502 123.6,-99.3487 123.6,-84.6035"/>
<polygon fill="#000000" stroke="#000000" points="127.1001,-84.5185 123.6,-74.5185 120.1001,-84.5185 127.1001,-84.5185"/>
<text text-anchor="middle" x="179.1" y="-112.4" font-family="Times,serif" font-size="14.00" fill="#000000">consensus_text</text>
</g>
<!-- p56&#45;&gt;p57 -->
<g id="edge63" class="edge">
<title>p56&#45;&gt;p57</title>
<path fill="none" stroke="#000000" d="M315.6888,-141.3677C314.4684,-131.0402 314.7184,-118.2902 320.6,-108.6 323.9777,-103.0352 328.5444,-98.2722 333.7086,-94.2099"/>
<polygon fill="#000000" stroke="#000000" points="335.9475,-96.9192 342.2306,-88.3885 331.999,-91.1391 335.9475,-96.9192"/>
<text text-anchor="middle" x="376.6" y="-112.4" font-family="Times,serif" font-size="14.00" fill="#000000">features_mztab</text>
</g>
</g>
</svg>
